<svg fill="none" viewBox="0 0 839 133"><path fill="currentColor" fill-rule="evenodd" d="M0 .889c0 .489 7.376 24.226 16.392 52.75 9.015 28.523 18.262 57.832 20.549 65.131l4.157 13.269 21.093-.269c17.524-.224 21.231-.524 21.912-1.77C84.975 128.404 125 1.846 125 .685 125 .308 116.921 0 107.047 0H89.094l-2.02 6.75c-12.435 41.552-24.557 81.1-24.787 80.87C62.006 87.339 36 .987 36 .334 36 .15 27.9 0 18 0S0 .4 0 .889M147.243 65.75l.257 65.75h37l.257-65.75.257-65.75h-38.028zM213 14.985V29.97l29.455.265 29.454.265L241.472 67l-30.438 36.5-.017 14.259-.017 14.258 54.75-.258 54.75-.259v-30l-30.25-.265c-16.637-.145-30.25-.506-30.25-.801s13.05-16.76 29-36.588l29-36.052V0H213zM345.249 46.25c.388 42.622.577 46.769 2.416 52.873 2.643 8.77 6.075 14.425 12.277 20.226 10.182 9.524 23.073 13.658 42.518 13.636 20.3-.023 31.513-3.538 42.074-13.19 6.587-6.02 10.099-11.695 12.792-20.672 1.826-6.087 2.022-10.364 2.423-52.873L460.185 0h-37.126l-.28 45.25c-.269 43.622-.354 45.394-2.363 49.25-3.137 6.022-9.09 9.005-17.916 8.977-8.689-.028-13.674-2.273-17.339-7.809l-2.661-4.02-.279-45.824L381.942 0h-37.113zm170.742-45c-.005.688-9.163 30.05-20.352 65.25s-20.039 64.348-19.667 64.774 8.497.651 18.055.5l17.378-.274 13.054-43.173c7.18-23.746 13.284-43.404 13.566-43.685.281-.281 5.204 15.097 10.94 34.173 5.736 19.077 11.711 38.847 13.278 43.935l2.85 9.25h17.394c9.567 0 17.605-.34 17.861-.754.257-.415-8.798-30.115-20.122-66L559.637 0h-21.819c-16.783 0-21.82.288-21.827 1.25m107.252 64.5.257 65.75h97v-30l-30.25-.265-30.25-.264V0h-37.014zm120 0 .257 65.75 47.75.26 47.75.259V101h-59V0h-37.014z" clip-rule="evenodd"/></svg>